G04*
G04 #@! TF.GenerationSoftware,Altium Limited,Altium Designer,23.9.2 (47)*
G04*
G04 Layer_Physical_Order=1*
G04 Layer_Color=255*
%FSAX44Y44*%
%MOMM*%
G71*
G04*
G04 #@! TF.SameCoordinates,CA360F41-C6A4-41FF-A6D1-DAC2DD7E16B6*
G04*
G04*
G04 #@! TF.FilePolarity,Positive*
G04*
G01*
G75*
%ADD10C,0.2000*%
%ADD54C,0.1000*%
%ADD55R,2.3500X1.5500*%
%ADD56R,2.1500X1.3000*%
%ADD57R,7.0000X6.5000*%
%ADD58R,0.9000X0.6000*%
%ADD59R,0.6000X0.9000*%
%ADD60R,0.7000X1.3000*%
%ADD61R,1.3000X0.7000*%
%ADD62R,1.2570X3.4290*%
%ADD63R,10.6680X9.0170*%
%ADD64R,5.4000X5.4000*%
%ADD65R,1.8000X0.7000*%
%ADD66R,1.6000X0.9000*%
%ADD67R,0.9000X1.6000*%
%ADD68R,1.2000X1.2000*%
%ADD69R,1.6000X1.5000*%
%ADD70R,1.2000X0.6000*%
%ADD96C,0.5000*%
%ADD97C,0.6000*%
%ADD98C,0.8000*%
%ADD99C,1.0000*%
%ADD100C,3.0000*%
%ADD101R,1.1000X1.1000*%
%ADD102C,1.1000*%
%ADD103R,1.1000X1.1000*%
%ADD104O,5.0000X2.5000*%
%ADD105O,4.5000X2.2500*%
%ADD106O,2.2500X4.5000*%
%ADD107C,5.5000*%
%ADD108C,10.0000*%
%ADD109C,0.6000*%
G36*
X01350005Y02318465D02*
X02099986Y02318465D01*
X02103115D01*
X02103391Y02318410D01*
X02103700Y02318323D01*
X02106713Y02318093D01*
X02112634Y02316886D01*
X02118360Y02314954D01*
X02123802Y02312325D01*
X02128875Y02309041D01*
X02133500Y02305152D01*
X02137607Y02300719D01*
X02141131Y02295810D01*
X02144019Y02290501D01*
X02146224Y02284875D01*
X02147714Y02279018D01*
X02148465Y02273022D01*
X02148464Y02269991D01*
X02148465Y01850000D01*
Y01846978D01*
X02147714Y01840982D01*
X02146225Y01835125D01*
X02144019Y01829499D01*
X02141132Y01824190D01*
X02137607Y01819281D01*
X02133501Y01814848D01*
X02128875Y01810959D01*
X02123802Y01807675D01*
X02118360Y01805046D01*
X02112634Y01803114D01*
X02106713Y01801908D01*
X02103700Y01801677D01*
X02103391Y01801590D01*
X02103115Y01801535D01*
X02099995D01*
X01350000Y01801535D01*
X01346823D01*
X01340525Y01802365D01*
X01334388Y01804009D01*
X01328519Y01806440D01*
X01323017Y01809617D01*
X01317977Y01813484D01*
X01313484Y01817977D01*
X01309617Y01823017D01*
X01306440Y01828519D01*
X01304009Y01834388D01*
X01302365Y01840525D01*
X01301535Y01846823D01*
X01301535Y01850005D01*
X01301535Y02270005D01*
X01301535Y02273181D01*
X01302365Y02279479D01*
X01304010Y02285616D01*
X01306441Y02291485D01*
X01309618Y02296986D01*
X01313486Y02302026D01*
X01317978Y02306517D01*
X01323018Y02310384D01*
X01328520Y02313561D01*
X01334389Y02315992D01*
X01340525Y02317636D01*
X01346823Y02318465D01*
X01350005Y02318465D01*
D02*
G37*
%LPC*%
G36*
X01502322Y02299500D02*
X01497678D01*
X01493092Y02298774D01*
X01488676Y02297339D01*
X01484539Y02295231D01*
X01480782Y02292501D01*
X01477499Y02289218D01*
X01474769Y02285461D01*
X01472661Y02281324D01*
X01471226Y02276908D01*
X01470500Y02272322D01*
Y02267678D01*
X01471226Y02263092D01*
X01472661Y02258676D01*
X01474769Y02254539D01*
X01477499Y02250782D01*
X01480782Y02247499D01*
X01484539Y02244769D01*
X01488676Y02242661D01*
X01493092Y02241226D01*
X01494902Y02240940D01*
Y02201112D01*
X01479888Y02186098D01*
X01411000D01*
X01409049Y02185710D01*
X01407395Y02184605D01*
X01360895Y02138105D01*
X01359790Y02136451D01*
X01359402Y02134500D01*
Y02038000D01*
X01359790Y02036049D01*
X01360895Y02034395D01*
X01381745Y02013545D01*
X01383399Y02012440D01*
X01385350Y02012052D01*
X01450600D01*
Y02008650D01*
X01476100D01*
Y02025650D01*
X01450600D01*
Y02022248D01*
X01387462D01*
X01369598Y02040112D01*
Y02132388D01*
X01413112Y02175902D01*
X01482000D01*
X01483951Y02176290D01*
X01485605Y02177395D01*
X01500000Y02191790D01*
X01514395Y02177395D01*
X01516049Y02176290D01*
X01518000Y02175902D01*
X01576902D01*
Y02149000D01*
X01577290Y02147049D01*
X01578395Y02145395D01*
X01588095Y02135695D01*
X01589749Y02134590D01*
X01591700Y02134202D01*
X01637000D01*
Y02133800D01*
X01642902D01*
Y02127515D01*
X01643290Y02125564D01*
X01644395Y02123910D01*
X01647910Y02120395D01*
X01649564Y02119290D01*
X01651515Y02118902D01*
X01731000D01*
X01732951Y02119290D01*
X01734605Y02120395D01*
X01741605Y02127395D01*
X01742710Y02129049D01*
X01743098Y02131000D01*
Y02139000D01*
Y02165000D01*
X01742710Y02166951D01*
X01741605Y02168605D01*
X01729205Y02181005D01*
X01727551Y02182110D01*
X01725600Y02182498D01*
X01715000D01*
Y02182900D01*
X01709098D01*
Y02270888D01*
X01715862Y02277652D01*
X01758888D01*
X01759902Y02276638D01*
Y02275000D01*
X01757500D01*
Y02274560D01*
X01740108D01*
X01738280Y02274320D01*
X01736578Y02273615D01*
X01735115Y02272493D01*
X01729258Y02266635D01*
X01728136Y02265172D01*
X01727430Y02263470D01*
X01727190Y02261642D01*
Y02212250D01*
X01727430Y02210423D01*
X01728136Y02208720D01*
X01729258Y02207258D01*
X01738008Y02198508D01*
X01739470Y02197386D01*
X01741173Y02196680D01*
X01743000Y02196440D01*
X01824576D01*
X01846940Y02174075D01*
Y02117000D01*
X01825000D01*
Y02059000D01*
X01883000D01*
Y02117000D01*
X01861060D01*
Y02177000D01*
X01860820Y02178827D01*
X01860114Y02180530D01*
X01858992Y02181992D01*
X01832492Y02208492D01*
X01831030Y02209615D01*
X01829327Y02210320D01*
X01827500Y02210560D01*
X01745925D01*
X01741310Y02215175D01*
Y02258718D01*
X01743032Y02260440D01*
X01757500D01*
Y02260000D01*
X01772500D01*
Y02261882D01*
X01804750D01*
Y02258250D01*
X01832250D01*
Y02277750D01*
X01804750D01*
Y02274117D01*
X01772500D01*
Y02275000D01*
X01770098D01*
Y02278750D01*
X01769710Y02280701D01*
X01768605Y02282355D01*
X01764605Y02286355D01*
X01762951Y02287460D01*
X01761000Y02287848D01*
X01713750D01*
X01711799Y02287460D01*
X01710145Y02286355D01*
X01700395Y02276605D01*
X01699290Y02274951D01*
X01698902Y02273000D01*
Y02182900D01*
X01693000D01*
Y02171900D01*
X01715000D01*
Y02172302D01*
X01723488D01*
X01732902Y02162888D01*
Y02139000D01*
Y02133112D01*
X01728888Y02129098D01*
X01653626D01*
X01653098Y02129626D01*
Y02133800D01*
X01659000D01*
Y02144800D01*
X01637000D01*
Y02144398D01*
X01593812D01*
X01587098Y02151112D01*
Y02181000D01*
X01587000Y02181492D01*
Y02187500D01*
X01577000D01*
Y02186098D01*
X01520112D01*
X01505098Y02201112D01*
Y02240940D01*
X01506908Y02241226D01*
X01511324Y02242661D01*
X01515461Y02244769D01*
X01519218Y02247499D01*
X01522501Y02250782D01*
X01525231Y02254539D01*
X01527339Y02258676D01*
X01528774Y02263092D01*
X01529500Y02267678D01*
Y02272322D01*
X01528774Y02276908D01*
X01527339Y02281324D01*
X01525231Y02285461D01*
X01522501Y02289218D01*
X01519218Y02292501D01*
X01515461Y02295231D01*
X01511324Y02297339D01*
X01506908Y02298774D01*
X01502322Y02299500D01*
D02*
G37*
G36*
X01984750Y02251864D02*
X01962250D01*
X01958791Y02251409D01*
X01955568Y02250074D01*
X01952800Y02247950D01*
X01950676Y02245182D01*
X01950442Y02244618D01*
X01897250D01*
Y02248500D01*
X01884250D01*
Y02228500D01*
X01897250D01*
Y02232383D01*
X01919235D01*
X01919542Y02231113D01*
X01917050Y02229200D01*
X01914926Y02226432D01*
X01913591Y02223209D01*
X01913136Y02219750D01*
Y02197250D01*
X01913591Y02193791D01*
X01914926Y02190568D01*
X01917050Y02187800D01*
X01919818Y02185676D01*
X01923041Y02184341D01*
X01926500Y02183886D01*
X01929959Y02184341D01*
X01933182Y02185676D01*
X01935950Y02187800D01*
X01938074Y02190568D01*
X01939409Y02193791D01*
X01939864Y02197250D01*
Y02219750D01*
X01939409Y02223209D01*
X01938074Y02226432D01*
X01935950Y02229200D01*
X01933458Y02231113D01*
X01933765Y02232383D01*
X01950442D01*
X01950676Y02231818D01*
X01952800Y02229050D01*
X01955568Y02226926D01*
X01958791Y02225591D01*
X01962250Y02225136D01*
X01984750D01*
X01988209Y02225591D01*
X01991432Y02226926D01*
X01994200Y02229050D01*
X01996324Y02231818D01*
X01997659Y02235041D01*
X01998114Y02238500D01*
X01997659Y02241959D01*
X01996324Y02245182D01*
X01994200Y02247950D01*
X01991432Y02250074D01*
X01988209Y02251409D01*
X01984750Y02251864D01*
D02*
G37*
G36*
X01875250Y02277750D02*
X01847750D01*
Y02258250D01*
X01855632D01*
Y02248500D01*
X01855250D01*
Y02228500D01*
X01868250D01*
Y02248500D01*
X01867867D01*
Y02258250D01*
X01875250D01*
Y02277750D01*
D02*
G37*
G36*
X02086158Y02305750D02*
X02079342D01*
X02072583Y02304860D01*
X02065999Y02303096D01*
X02059702Y02300487D01*
X02053798Y02297079D01*
X02048390Y02292930D01*
X02043570Y02288109D01*
X02039421Y02282702D01*
X02036013Y02276798D01*
X02033404Y02270501D01*
X02031640Y02263916D01*
X02030750Y02257158D01*
Y02250342D01*
X02031640Y02243584D01*
X02033404Y02236999D01*
X02036013Y02230702D01*
X02039421Y02224798D01*
X02043570Y02219391D01*
X02048390Y02214570D01*
X02053798Y02210421D01*
X02059702Y02207013D01*
X02065999Y02204404D01*
X02072583Y02202640D01*
X02079342Y02201750D01*
X02086158D01*
X02092917Y02202640D01*
X02099501Y02204404D01*
X02105798Y02207013D01*
X02111702Y02210421D01*
X02117110Y02214570D01*
X02121929Y02219391D01*
X02126079Y02224798D01*
X02129487Y02230702D01*
X02132096Y02236999D01*
X02133860Y02243584D01*
X02134750Y02250342D01*
Y02257158D01*
X02133860Y02263916D01*
X02132096Y02270501D01*
X02129487Y02276798D01*
X02126079Y02282702D01*
X02121929Y02288109D01*
X02117110Y02292930D01*
X02111702Y02297079D01*
X02105798Y02300487D01*
X02099501Y02303096D01*
X02092917Y02304860D01*
X02086158Y02305750D01*
D02*
G37*
G36*
X01370658D02*
X01363842D01*
X01357083Y02304860D01*
X01350499Y02303096D01*
X01344202Y02300487D01*
X01338298Y02297079D01*
X01332890Y02292930D01*
X01328070Y02288109D01*
X01323921Y02282702D01*
X01320513Y02276798D01*
X01317904Y02270501D01*
X01316140Y02263916D01*
X01315250Y02257158D01*
Y02250342D01*
X01316140Y02243584D01*
X01317904Y02236999D01*
X01320513Y02230702D01*
X01323921Y02224798D01*
X01328070Y02219391D01*
X01332890Y02214570D01*
X01338298Y02210421D01*
X01344202Y02207013D01*
X01350499Y02204404D01*
X01357083Y02202640D01*
X01363842Y02201750D01*
X01370658D01*
X01377417Y02202640D01*
X01384001Y02204404D01*
X01390298Y02207013D01*
X01396202Y02210421D01*
X01401609Y02214570D01*
X01406429Y02219391D01*
X01410579Y02224798D01*
X01413987Y02230702D01*
X01416596Y02236999D01*
X01418360Y02243584D01*
X01419250Y02250342D01*
Y02257158D01*
X01418360Y02263916D01*
X01416596Y02270501D01*
X01413987Y02276798D01*
X01410579Y02282702D01*
X01406429Y02288109D01*
X01401609Y02292930D01*
X01396202Y02297079D01*
X01390298Y02300487D01*
X01384001Y02303096D01*
X01377417Y02304860D01*
X01370658Y02305750D01*
D02*
G37*
G36*
X01671500Y02220348D02*
X01617750D01*
X01615799Y02219960D01*
X01614145Y02218855D01*
X01606395Y02211105D01*
X01605290Y02209451D01*
X01604902Y02207500D01*
Y02186098D01*
X01602000D01*
Y02187500D01*
X01592000D01*
Y02181492D01*
X01591902Y02181000D01*
X01592000Y02180508D01*
Y02174500D01*
X01602000D01*
Y02175902D01*
X01605000D01*
Y02174500D01*
X01615000D01*
Y02180508D01*
X01615098Y02181000D01*
Y02205388D01*
X01619862Y02210152D01*
X01669388D01*
X01674652Y02204888D01*
Y02168215D01*
X01674742Y02167764D01*
X01673571Y02167138D01*
X01672405Y02168305D01*
X01670751Y02169410D01*
X01668800Y02169798D01*
X01659000D01*
Y02170200D01*
X01637000D01*
Y02169798D01*
X01630098D01*
Y02181000D01*
X01630000Y02181492D01*
Y02187500D01*
X01620000D01*
Y02181492D01*
X01619902Y02181000D01*
Y02164700D01*
X01620000Y02164207D01*
Y02158500D01*
X01630000D01*
Y02159602D01*
X01637000D01*
Y02159200D01*
X01659000D01*
Y02159602D01*
X01666688D01*
X01668067Y02158223D01*
X01667348Y02157147D01*
X01666495Y02157500D01*
X01664505D01*
X01663511Y02157088D01*
X01659000D01*
Y02157500D01*
X01637000D01*
Y02146500D01*
X01659000D01*
Y02147912D01*
X01663511D01*
X01664505Y02147500D01*
X01666495D01*
X01668332Y02148261D01*
X01669739Y02149668D01*
X01670500Y02151505D01*
Y02153495D01*
X01670147Y02154348D01*
X01671223Y02155067D01*
X01677895Y02148395D01*
X01679549Y02147290D01*
X01681500Y02146902D01*
X01693000D01*
Y02146500D01*
X01715000D01*
Y02157500D01*
X01693000D01*
Y02157098D01*
X01683612D01*
X01682188Y02158521D01*
X01682814Y02159692D01*
X01683265Y02159602D01*
X01693000D01*
Y02159200D01*
X01715000D01*
Y02170200D01*
X01693000D01*
Y02169798D01*
X01685376D01*
X01684848Y02170326D01*
Y02207000D01*
X01684460Y02208951D01*
X01683355Y02210605D01*
X01675105Y02218855D01*
X01673451Y02219960D01*
X01671500Y02220348D01*
D02*
G37*
G36*
X01728000Y02145500D02*
X01718000D01*
Y02144248D01*
X01715000D01*
Y02144800D01*
X01693000D01*
Y02143863D01*
X01682679D01*
X01681745Y02144250D01*
X01679755D01*
X01677918Y02143489D01*
X01676511Y02142082D01*
X01675750Y02140245D01*
Y02138255D01*
X01676511Y02136418D01*
X01677918Y02135011D01*
X01679755Y02134250D01*
X01681745D01*
X01682799Y02134687D01*
X01693000D01*
Y02133800D01*
X01715000D01*
Y02134052D01*
X01718000D01*
Y02132500D01*
X01728000D01*
Y02138508D01*
X01728098Y02139000D01*
Y02139150D01*
X01728000Y02139642D01*
Y02145500D01*
D02*
G37*
G36*
X02060495Y02157500D02*
X02058505D01*
X02056668Y02156739D01*
X02055261Y02155332D01*
X02054500Y02153495D01*
Y02151505D01*
X02054912Y02150511D01*
Y02095500D01*
X02054500D01*
Y02082500D01*
X02064500D01*
Y02095500D01*
X02064088D01*
Y02150511D01*
X02064500Y02151505D01*
Y02153495D01*
X02063739Y02155332D01*
X02062332Y02156739D01*
X02060495Y02157500D01*
D02*
G37*
G36*
X02010685Y02107965D02*
X01994115D01*
Y02069675D01*
X02010685D01*
Y02084412D01*
X02039500D01*
Y02082500D01*
X02049500D01*
Y02095500D01*
X02039500D01*
Y02093588D01*
X02010685D01*
Y02107965D01*
D02*
G37*
G36*
X02087995Y02144500D02*
X02086005D01*
X02084168Y02143739D01*
X02082761Y02142332D01*
X02082000Y02140495D01*
Y02138506D01*
X02082412Y02137511D01*
Y02086000D01*
X02079000D01*
Y02076000D01*
X02095000D01*
Y02086000D01*
X02091588D01*
Y02137511D01*
X02092000Y02138506D01*
Y02140495D01*
X02091239Y02142332D01*
X02089832Y02143739D01*
X02087995Y02144500D01*
D02*
G37*
G36*
X01422500Y02089000D02*
X01412500D01*
Y02082993D01*
X01412402Y02082500D01*
X01412500Y02082007D01*
Y02076000D01*
X01422500D01*
Y02077402D01*
X01434402D01*
Y02071350D01*
X01434000D01*
Y02054350D01*
X01445000D01*
Y02057752D01*
X01450600D01*
Y02054350D01*
X01476100D01*
Y02071350D01*
X01450600D01*
Y02067948D01*
X01445000D01*
Y02071350D01*
X01444598D01*
Y02077500D01*
X01446000D01*
Y02087500D01*
X01439993D01*
X01439500Y02087598D01*
X01422500D01*
Y02089000D01*
D02*
G37*
G36*
X02121000Y02076500D02*
X02105000D01*
Y02066500D01*
X02108412D01*
Y02037000D01*
X02103000D01*
Y02018000D01*
X02123000D01*
Y02037000D01*
X02117588D01*
Y02066500D01*
X02121000D01*
Y02076500D01*
D02*
G37*
G36*
X02032340Y02032085D02*
X01921660D01*
Y02015082D01*
X01883000D01*
Y02027000D01*
X01825000D01*
Y01969000D01*
X01851440D01*
Y01959750D01*
X01844750D01*
Y01940250D01*
X01872250D01*
Y01959750D01*
X01865560D01*
Y01969000D01*
X01883000D01*
Y01980918D01*
X01921660D01*
Y01937915D01*
X02032340D01*
Y01980412D01*
X02043500D01*
Y01980000D01*
X02056500D01*
Y01990000D01*
X02043500D01*
Y01989588D01*
X02032340D01*
Y02032085D01*
D02*
G37*
G36*
X01728408Y02112000D02*
X01721592D01*
X01714834Y02111110D01*
X01708249Y02109346D01*
X01701952Y02106737D01*
X01696048Y02103329D01*
X01690640Y02099180D01*
X01685820Y02094359D01*
X01681671Y02088952D01*
X01678262Y02083048D01*
X01675654Y02076751D01*
X01673890Y02070166D01*
X01673000Y02063408D01*
Y02056592D01*
X01673890Y02049834D01*
X01675654Y02043249D01*
X01678262Y02036952D01*
X01681671Y02031048D01*
X01685820Y02025640D01*
X01690640Y02020820D01*
X01696048Y02016671D01*
X01701952Y02013262D01*
X01708249Y02010654D01*
X01714834Y02008890D01*
X01721592Y02008000D01*
X01728408D01*
X01735166Y02008890D01*
X01741751Y02010654D01*
X01748048Y02013262D01*
X01753952Y02016671D01*
X01759359Y02020820D01*
X01764180Y02025640D01*
X01768329Y02031048D01*
X01771737Y02036952D01*
X01774346Y02043249D01*
X01776110Y02049834D01*
X01777000Y02056592D01*
Y02063408D01*
X01776110Y02070166D01*
X01774346Y02076751D01*
X01771737Y02083048D01*
X01768329Y02088952D01*
X01764180Y02094359D01*
X01759359Y02099180D01*
X01753952Y02103329D01*
X01748048Y02106737D01*
X01741751Y02109346D01*
X01735166Y02111110D01*
X01728408Y02112000D01*
D02*
G37*
G36*
X02134000Y02006000D02*
X02112000D01*
Y02003652D01*
X02111000Y02003000D01*
X02110730Y02003000D01*
X02095000D01*
Y01999588D01*
X02088000D01*
Y02001500D01*
X02078000D01*
Y01988500D01*
X02088000D01*
Y01990412D01*
X02095000D01*
Y01987000D01*
X02110730D01*
X02111000Y01987000D01*
X02112000Y01986348D01*
Y01984000D01*
X02115935D01*
Y01965383D01*
X02113770Y01963218D01*
X02112500Y01963744D01*
Y01968000D01*
X02093500D01*
Y01942000D01*
X02112500D01*
Y01947435D01*
X02116250D01*
X02118208Y01947693D01*
X02120032Y01948449D01*
X02121599Y01949651D01*
X02128849Y01956901D01*
X02130051Y01958468D01*
X02130807Y01960292D01*
X02131065Y01962250D01*
X02131065Y01962250D01*
Y01984000D01*
X02134000D01*
Y02006000D01*
D02*
G37*
G36*
X02060000Y02021500D02*
X02040000D01*
Y02008500D01*
X02045412D01*
Y02005000D01*
X02043500D01*
Y01995000D01*
X02056500D01*
Y02005000D01*
X02054588D01*
Y02008500D01*
X02060000D01*
Y02021500D01*
D02*
G37*
G36*
X01515000Y02102598D02*
X01439500D01*
X01439008Y02102500D01*
X01433000D01*
Y02092500D01*
X01439008D01*
X01439500Y02092402D01*
X01512888D01*
X01524902Y02080388D01*
Y02074500D01*
X01493000D01*
Y02005500D01*
X01524902D01*
Y01992500D01*
X01523500D01*
Y01982500D01*
X01529507D01*
X01530000Y01982402D01*
X01541500D01*
Y01982000D01*
X01558500D01*
Y01993000D01*
X01541500D01*
Y01992598D01*
X01535098D01*
Y02005500D01*
X01567000D01*
Y02074500D01*
X01535098D01*
Y02082500D01*
X01534710Y02084451D01*
X01533605Y02086105D01*
X01518605Y02101105D01*
X01516951Y02102210D01*
X01515000Y02102598D01*
D02*
G37*
G36*
X02083500Y01968000D02*
X02064500D01*
Y01962565D01*
X02055250D01*
X02053292Y01962307D01*
X02051468Y01961551D01*
X02049901Y01960349D01*
X02043651Y01954099D01*
X02042449Y01952532D01*
X02041693Y01950708D01*
X02041435Y01948750D01*
Y01931383D01*
X02030617Y01920565D01*
X01825633D01*
X01823065Y01923134D01*
Y01937250D01*
X01832250D01*
Y01962750D01*
X01798750D01*
Y01959078D01*
X01758000D01*
X01755650Y01958768D01*
X01753461Y01957861D01*
X01751581Y01956419D01*
X01743581Y01948419D01*
X01742139Y01946539D01*
X01741232Y01944350D01*
X01740922Y01942000D01*
Y01889500D01*
X01739500D01*
Y01868500D01*
X01760500D01*
Y01871435D01*
X01782500D01*
Y01869500D01*
X01813500D01*
Y01871435D01*
X01816250D01*
X01818208Y01871693D01*
X01820032Y01872449D01*
X01821599Y01873651D01*
X01833383Y01885435D01*
X01903867D01*
X01922231Y01867071D01*
X01922204Y01867034D01*
X01919881Y01862476D01*
X01918300Y01857610D01*
X01917500Y01852558D01*
Y01847442D01*
X01918300Y01842390D01*
X01919881Y01837524D01*
X01922204Y01832966D01*
X01925210Y01828828D01*
X01928828Y01825210D01*
X01932966Y01822204D01*
X01937524Y01819881D01*
X01942390Y01818300D01*
X01947442Y01817500D01*
X01952558D01*
X01957610Y01818300D01*
X01962476Y01819881D01*
X01967034Y01822204D01*
X01971172Y01825210D01*
X01974790Y01828828D01*
X01977796Y01832966D01*
X01980119Y01837524D01*
X01981700Y01842390D01*
X01982500Y01847442D01*
Y01852558D01*
X01981700Y01857610D01*
X01980119Y01862476D01*
X01977796Y01867034D01*
X01974790Y01871172D01*
X01971172Y01874790D01*
X01967034Y01877796D01*
X01962476Y01880119D01*
X01957610Y01881700D01*
X01952558Y01882500D01*
X01947442D01*
X01942390Y01881700D01*
X01937524Y01880119D01*
X01932966Y01877796D01*
X01932929Y01877769D01*
X01912349Y01898349D01*
X01910782Y01899551D01*
X01908958Y01900307D01*
X01907000Y01900565D01*
X01830250D01*
X01830250Y01900565D01*
X01828292Y01900307D01*
X01826468Y01899551D01*
X01824901Y01898349D01*
X01824901Y01898349D01*
X01814597Y01888045D01*
X01813500Y01888500D01*
Y01888500D01*
X01782500D01*
Y01886565D01*
X01760500D01*
Y01889500D01*
X01759078D01*
Y01938240D01*
X01761760Y01940922D01*
X01798750D01*
Y01937250D01*
X01807935D01*
Y01920000D01*
X01808193Y01918042D01*
X01808949Y01916218D01*
X01810151Y01914651D01*
X01817151Y01907651D01*
X01817151Y01907651D01*
X01818718Y01906449D01*
X01820542Y01905693D01*
X01822500Y01905435D01*
X02033750D01*
X02035708Y01905693D01*
X02037532Y01906449D01*
X02039099Y01907651D01*
X02054349Y01922901D01*
X02054349Y01922901D01*
X02055551Y01924468D01*
X02056307Y01926292D01*
X02056565Y01928250D01*
Y01945617D01*
X02058383Y01947435D01*
X02064500D01*
Y01942000D01*
X02083500D01*
Y01968000D01*
D02*
G37*
G36*
X01530000Y01977598D02*
X01529507Y01977500D01*
X01523500D01*
Y01967500D01*
X01524902D01*
Y01946362D01*
X01496395Y01917855D01*
X01495290Y01916201D01*
X01494902Y01914250D01*
Y01879060D01*
X01493092Y01878774D01*
X01488676Y01877339D01*
X01484539Y01875231D01*
X01480782Y01872501D01*
X01477499Y01869218D01*
X01474769Y01865461D01*
X01472661Y01861324D01*
X01471226Y01856908D01*
X01470500Y01852322D01*
Y01847678D01*
X01471226Y01843092D01*
X01472661Y01838676D01*
X01474769Y01834539D01*
X01477499Y01830782D01*
X01480782Y01827499D01*
X01484539Y01824769D01*
X01488676Y01822661D01*
X01493092Y01821226D01*
X01497678Y01820500D01*
X01502322D01*
X01506908Y01821226D01*
X01511324Y01822661D01*
X01515461Y01824769D01*
X01519218Y01827499D01*
X01522501Y01830782D01*
X01525231Y01834539D01*
X01527339Y01838676D01*
X01528774Y01843092D01*
X01529500Y01847678D01*
Y01852322D01*
X01528774Y01856908D01*
X01527339Y01861324D01*
X01525231Y01865461D01*
X01522501Y01869218D01*
X01519218Y01872501D01*
X01515461Y01875231D01*
X01511324Y01877339D01*
X01506908Y01878774D01*
X01505098Y01879060D01*
Y01912138D01*
X01533605Y01940645D01*
X01534710Y01942299D01*
X01535098Y01944250D01*
Y01967500D01*
X01536500D01*
Y01977500D01*
X01530493D01*
X01530000Y01977598D01*
D02*
G37*
G36*
X02086158Y01918250D02*
X02079342D01*
X02072583Y01917360D01*
X02065999Y01915596D01*
X02059702Y01912987D01*
X02053798Y01909579D01*
X02048390Y01905430D01*
X02043570Y01900609D01*
X02039421Y01895202D01*
X02036013Y01889298D01*
X02033404Y01883001D01*
X02031640Y01876416D01*
X02030750Y01869658D01*
Y01862842D01*
X02031640Y01856084D01*
X02033404Y01849499D01*
X02036013Y01843202D01*
X02039421Y01837298D01*
X02043570Y01831890D01*
X02048390Y01827070D01*
X02053798Y01822921D01*
X02059702Y01819512D01*
X02065999Y01816904D01*
X02072583Y01815140D01*
X02079342Y01814250D01*
X02086158D01*
X02092917Y01815140D01*
X02099501Y01816904D01*
X02105798Y01819512D01*
X02111702Y01822921D01*
X02117110Y01827070D01*
X02121929Y01831890D01*
X02126079Y01837298D01*
X02129487Y01843202D01*
X02132096Y01849499D01*
X02133860Y01856084D01*
X02134750Y01862842D01*
Y01869658D01*
X02133860Y01876416D01*
X02132096Y01883001D01*
X02129487Y01889298D01*
X02126079Y01895202D01*
X02121929Y01900609D01*
X02117110Y01905430D01*
X02111702Y01909579D01*
X02105798Y01912987D01*
X02099501Y01915596D01*
X02092917Y01917360D01*
X02086158Y01918250D01*
D02*
G37*
G36*
X01370658D02*
X01363842D01*
X01357083Y01917360D01*
X01350499Y01915596D01*
X01344202Y01912987D01*
X01338298Y01909579D01*
X01332890Y01905430D01*
X01328070Y01900609D01*
X01323921Y01895202D01*
X01320513Y01889298D01*
X01317904Y01883001D01*
X01316140Y01876416D01*
X01315250Y01869658D01*
Y01862842D01*
X01316140Y01856084D01*
X01317904Y01849499D01*
X01320513Y01843202D01*
X01323921Y01837298D01*
X01328070Y01831890D01*
X01332890Y01827070D01*
X01338298Y01822921D01*
X01344202Y01819512D01*
X01350499Y01816904D01*
X01357083Y01815140D01*
X01363842Y01814250D01*
X01370658D01*
X01377417Y01815140D01*
X01384001Y01816904D01*
X01390298Y01819512D01*
X01396202Y01822921D01*
X01401609Y01827070D01*
X01406429Y01831890D01*
X01410579Y01837298D01*
X01413987Y01843202D01*
X01416596Y01849499D01*
X01418360Y01856084D01*
X01419250Y01862842D01*
Y01869658D01*
X01418360Y01876416D01*
X01416596Y01883001D01*
X01413987Y01889298D01*
X01410579Y01895202D01*
X01406429Y01900609D01*
X01401609Y01905430D01*
X01396202Y01909579D01*
X01390298Y01912987D01*
X01384001Y01915596D01*
X01377417Y01917360D01*
X01370658Y01918250D01*
D02*
G37*
%LPD*%
D10*
X01765000Y02267500D02*
X01765500Y02268000D01*
X01861500D02*
X01861750Y02267750D01*
D54*
X02150000Y02270000D02*
G03*
X02100000Y02320000I-00050000J00000000D01*
G01*
X02100000Y01800000D02*
G03*
X02150000Y01850000I00000000J00050000D01*
G01*
X01350000Y02320000D02*
G03*
X01300000Y02270000I00000000J-00050000D01*
G01*
X01300000Y01850000D02*
G03*
X01350000Y01800000I00050000J00000000D01*
G01*
X02150000Y02270000D02*
X02150000Y01850000D01*
X01350000Y02320000D02*
X02103500Y02320000D01*
X01300000Y02270000D02*
X01300000Y01850000D01*
X01350000Y01800000D02*
X02103500Y01800000D01*
D55*
X01858500Y01950000D02*
D03*
X01815500D02*
D03*
X01861500Y02268000D02*
D03*
X01818500D02*
D03*
D56*
X01463350Y02062850D02*
D03*
Y02017150D02*
D03*
D57*
X01530000Y02040000D02*
D03*
D58*
X01439500Y02097500D02*
D03*
Y02082500D02*
D03*
X01530000Y01972500D02*
D03*
Y01987500D02*
D03*
X02050000Y01985000D02*
D03*
Y02000000D02*
D03*
D59*
X01417500Y02082500D02*
D03*
X01402500D02*
D03*
X01805500Y01879000D02*
D03*
X01790500D02*
D03*
X01738000Y02139000D02*
D03*
X01723000D02*
D03*
X01625000Y02181000D02*
D03*
X01610000D02*
D03*
X01625000Y02165000D02*
D03*
X01610000D02*
D03*
X01582000Y02181000D02*
D03*
X01597000D02*
D03*
X02083000Y01995000D02*
D03*
X02068000D02*
D03*
X02044500Y02089000D02*
D03*
X02059500D02*
D03*
D60*
X01439500Y02062850D02*
D03*
X01420500D02*
D03*
D61*
X01550000Y01987500D02*
D03*
Y01968500D02*
D03*
D62*
X01951600Y02088820D02*
D03*
X02002400D02*
D03*
D63*
X01977000Y01985000D02*
D03*
D64*
X01854000Y02088000D02*
D03*
Y01998000D02*
D03*
D65*
X01648000Y02164700D02*
D03*
X01704000D02*
D03*
X01648000Y02177400D02*
D03*
X01704000D02*
D03*
X01648000Y02152000D02*
D03*
X01704000D02*
D03*
X01648000Y02139300D02*
D03*
X01704000D02*
D03*
D66*
X02050000Y02044000D02*
D03*
Y02015000D02*
D03*
D67*
X02074000Y01955000D02*
D03*
X02103000D02*
D03*
X01861750Y02238500D02*
D03*
X01890750D02*
D03*
D68*
X02123000Y01995000D02*
D03*
X02103000D02*
D03*
D69*
X02113000Y02027500D02*
D03*
D70*
X02087000Y02081000D02*
D03*
X02113000Y02071500D02*
D03*
Y02090500D02*
D03*
D96*
X01830250Y01893000D02*
X01907000D01*
X01816250Y01879000D02*
X01830250Y01893000D01*
X01907000D02*
X01950000Y01850000D01*
X01648500Y02152500D02*
X01665500D01*
X01648000Y02152000D02*
X01648500Y02152500D01*
X01815500Y01920000D02*
Y01950000D01*
X01822500Y01913000D02*
X02033750D01*
X01815500Y01920000D02*
X01822500Y01913000D01*
X02033750D02*
X02049000Y01928250D01*
Y01948750D01*
X02055250Y01955000D01*
X02074000D01*
X02087000Y02081000D02*
Y02139500D01*
X01703975Y02139275D02*
X01704000Y02139300D01*
X01680750Y02139250D02*
X01680775Y02139275D01*
X01703975D01*
X02059500Y02089000D02*
Y02152500D01*
X02002580Y02089000D02*
X02044500D01*
X02002400Y02088820D02*
X02002580Y02089000D01*
X02113000Y02027500D02*
Y02071500D01*
X02123000Y01995000D02*
X02123500Y01994500D01*
Y01962250D02*
Y01994500D01*
X02116250Y01955000D02*
X02123500Y01962250D01*
X02103000Y01955000D02*
X02116250D01*
X02083000Y01995000D02*
X02103000D01*
X02050000Y02000000D02*
Y02015000D01*
X01977000Y01985000D02*
X02050000D01*
X01750000Y01879000D02*
X01790500D01*
X01805500D02*
X01816250D01*
D97*
X01731000Y02124000D02*
X01738000Y02131000D01*
Y02139000D01*
X01648000Y02127515D02*
Y02139300D01*
X01651515Y02124000D02*
X01731000D01*
X01648000Y02127515D02*
X01651515Y02124000D01*
X01738000Y02139000D02*
Y02165000D01*
X01704150Y02139150D02*
X01723000D01*
X01713750Y02282750D02*
X01761000D01*
X01704000Y02177400D02*
Y02273000D01*
X01713750Y02282750D01*
X01765000Y02267500D02*
Y02278750D01*
X01761000Y02282750D02*
X01765000Y02278750D01*
X01648000Y02164700D02*
X01668800D01*
X01681500Y02152000D02*
X01704000D01*
X01668800Y02164700D02*
X01681500Y02152000D01*
X01625000Y02164700D02*
X01648000D01*
X01530000Y01987500D02*
X01550000D01*
X01530000D02*
Y02040000D01*
X01500000Y01914250D02*
X01530000Y01944250D01*
Y01972500D01*
X01500000Y01850000D02*
Y01914250D01*
X01385350Y02017150D02*
X01463350D01*
X01364500Y02038000D02*
Y02134500D01*
Y02038000D02*
X01385350Y02017150D01*
X01364500Y02134500D02*
X01411000Y02181000D01*
X01482000D01*
X01500000Y02199000D01*
Y02270000D01*
X01518000Y02181000D02*
X01582000D01*
X01500000Y02199000D02*
X01518000Y02181000D01*
X01582000Y02149000D02*
Y02181000D01*
X01439500Y02062850D02*
X01463350D01*
X01439500D02*
Y02082500D01*
X01417500D02*
X01439500D01*
X01515000Y02097500D02*
X01530000Y02082500D01*
X01439500Y02097500D02*
X01515000D01*
X01530000Y02040000D02*
Y02082500D01*
X01582000Y02149000D02*
X01591700Y02139300D01*
X01648000D01*
X01723000Y02139000D02*
Y02139150D01*
X01704000Y02139300D02*
X01704150Y02139150D01*
X01610000Y02181000D02*
Y02207500D01*
X01617750Y02215250D02*
X01671500D01*
X01610000Y02207500D02*
X01617750Y02215250D01*
X01671500D02*
X01679750Y02207000D01*
Y02168215D02*
Y02207000D01*
Y02168215D02*
X01683265Y02164700D01*
X01704000D01*
X01597000Y02181000D02*
X01610000D01*
X01625000Y02165000D02*
Y02181000D01*
Y02164700D02*
Y02165000D01*
X01725600Y02177400D02*
X01738000Y02165000D01*
X01704000Y02177400D02*
X01725600D01*
D98*
X01750000Y01879000D02*
Y01942000D01*
X01758000Y01950000D01*
X01815500D01*
X01765500Y02268000D02*
X01818500D01*
X01861750Y02238500D02*
Y02267750D01*
X01890750Y02238500D02*
X01973500D01*
D99*
X01964000Y01998000D02*
X01977000Y01985000D01*
X01858500Y01950000D02*
Y01993500D01*
X01854000Y01998000D02*
X01858500Y01993500D01*
X01827500Y02203500D02*
X01854000Y02177000D01*
Y02088000D02*
Y02177000D01*
X01743000Y02203500D02*
X01827500D01*
X01734250Y02261642D02*
X01740108Y02267500D01*
X01734250Y02212250D02*
X01743000Y02203500D01*
X01740108Y02267500D02*
X01765000D01*
X01734250Y02212250D02*
Y02261642D01*
D100*
X01854000Y01998000D02*
X01964000D01*
D101*
X01750000Y01879000D02*
D03*
D102*
X01700000D02*
D03*
X01765000Y02242500D02*
D03*
D103*
Y02267500D02*
D03*
D104*
X01973500Y02178500D02*
D03*
D105*
Y02238500D02*
D03*
D106*
X01926500Y02208500D02*
D03*
D107*
X01500000Y01850000D02*
D03*
Y02270000D02*
D03*
X01600000Y01850000D02*
D03*
Y02270000D02*
D03*
X01950000Y01850000D02*
D03*
X01850000D02*
D03*
D108*
X01725000Y02060000D02*
D03*
X02082750Y02253750D02*
D03*
Y01866250D02*
D03*
X01367250Y02253750D02*
D03*
Y01866250D02*
D03*
D109*
X01775000Y02000000D02*
D03*
Y01975000D02*
D03*
X01750000Y02000000D02*
D03*
Y01975000D02*
D03*
X01650000Y01950000D02*
D03*
Y01925000D02*
D03*
Y01900000D02*
D03*
Y01875000D02*
D03*
Y01850000D02*
D03*
Y01825000D02*
D03*
X01800000D02*
D03*
Y01850000D02*
D03*
X01900000Y01825000D02*
D03*
Y01850000D02*
D03*
X02000000Y01825000D02*
D03*
Y01850000D02*
D03*
Y01900000D02*
D03*
Y01875000D02*
D03*
X01675000Y02300000D02*
D03*
X01650000D02*
D03*
X01675000Y02275000D02*
D03*
X01650000D02*
D03*
X01675000Y02250000D02*
D03*
X01650000D02*
D03*
X02000000Y02275000D02*
D03*
X01900000D02*
D03*
X01925000D02*
D03*
X01950000D02*
D03*
X01975000D02*
D03*
X02000000Y02125000D02*
D03*
X02025000D02*
D03*
X01900000D02*
D03*
X01950000D02*
D03*
X01975000D02*
D03*
X02100000Y02200000D02*
D03*
Y02175000D02*
D03*
Y02150000D02*
D03*
Y02125000D02*
D03*
X02125000Y02100000D02*
D03*
Y02200000D02*
D03*
Y02175000D02*
D03*
Y02150000D02*
D03*
Y02125000D02*
D03*
X01650000Y01975000D02*
D03*
X01675000D02*
D03*
X01650000Y02000000D02*
D03*
X01675000D02*
D03*
X01700000D02*
D03*
Y01975000D02*
D03*
X01725000D02*
D03*
Y02000000D02*
D03*
X01600000D02*
D03*
Y01975000D02*
D03*
X01625000Y02000000D02*
D03*
Y01975000D02*
D03*
Y01950000D02*
D03*
X01600000D02*
D03*
Y02100000D02*
D03*
Y02075000D02*
D03*
X01625000Y02100000D02*
D03*
Y02075000D02*
D03*
Y02050000D02*
D03*
X01600000D02*
D03*
Y02025000D02*
D03*
X01625000D02*
D03*
X01475000Y02125000D02*
D03*
Y02150000D02*
D03*
X01500000D02*
D03*
Y02125000D02*
D03*
X01525000D02*
D03*
X01550000D02*
D03*
X01525000Y02150000D02*
D03*
X01550000D02*
D03*
X01450000Y02275000D02*
D03*
Y02250000D02*
D03*
Y02225000D02*
D03*
X01475000Y01975000D02*
D03*
X01450000D02*
D03*
Y01950000D02*
D03*
Y01925000D02*
D03*
X01475000Y01950000D02*
D03*
Y01925000D02*
D03*
X01425000D02*
D03*
Y01950000D02*
D03*
X01400000Y01925000D02*
D03*
Y01950000D02*
D03*
X01375000Y01925000D02*
D03*
Y01950000D02*
D03*
Y01975000D02*
D03*
X01400000D02*
D03*
X01425000D02*
D03*
Y02000000D02*
D03*
X01400000D02*
D03*
X01375000D02*
D03*
X01350000Y02175000D02*
D03*
Y02150000D02*
D03*
Y02125000D02*
D03*
Y02100000D02*
D03*
Y02075000D02*
D03*
Y02050000D02*
D03*
Y02025000D02*
D03*
Y02000000D02*
D03*
Y01975000D02*
D03*
Y01950000D02*
D03*
Y01925000D02*
D03*
X01325000Y02175000D02*
D03*
Y02150000D02*
D03*
Y02125000D02*
D03*
Y02100000D02*
D03*
Y02075000D02*
D03*
Y02050000D02*
D03*
Y02025000D02*
D03*
Y02000000D02*
D03*
Y01975000D02*
D03*
Y01950000D02*
D03*
Y01925000D02*
D03*
X01665500Y02152500D02*
D03*
X02087000Y02139500D02*
D03*
X01680750Y02139250D02*
D03*
X02059500Y02152500D02*
D03*
M02*
