G04*
G04 #@! TF.GenerationSoftware,Altium Limited,Altium Designer,23.9.2 (47)*
G04*
G04 Layer_Color=8388736*
%FSAX44Y44*%
%MOMM*%
G71*
G04*
G04 #@! TF.SameCoordinates,CA360F41-C6A4-41FF-A6D1-DAC2DD7E16B6*
G04*
G04*
G04 #@! TF.FilePolarity,Negative*
G04*
G01*
G75*
%ADD54C,0.1000*%
%ADD71R,2.5000X1.7000*%
%ADD72R,2.3000X1.4500*%
%ADD73R,7.1500X6.6500*%
%ADD74R,1.0500X0.7500*%
%ADD75R,0.7500X1.0500*%
%ADD76R,0.8500X1.4500*%
%ADD77R,1.4500X0.8500*%
%ADD78R,1.4070X3.5790*%
%ADD79R,10.8180X9.1670*%
%ADD80R,5.5500X5.5500*%
%ADD81R,1.9500X0.8500*%
%ADD82R,1.7500X1.0500*%
%ADD83R,1.0500X1.7500*%
%ADD84R,1.3500X1.3500*%
%ADD85R,1.7500X1.6500*%
%ADD86R,1.3500X0.7500*%
%ADD87R,1.2500X1.2500*%
%ADD88C,1.2500*%
%ADD89R,1.2500X1.2500*%
%ADD90O,5.1500X2.6500*%
%ADD91O,4.6500X2.4000*%
%ADD92O,2.4000X4.6500*%
%ADD93C,5.6500*%
%ADD94C,10.1500*%
%ADD95C,0.7500*%
D54*
X02150000Y02270000D02*
G03*
X02100000Y02320000I-00050000J00000000D01*
G01*
X02100000Y01800000D02*
G03*
X02150000Y01850000I00000000J00050000D01*
G01*
X01350000Y02320000D02*
G03*
X01300000Y02270000I00000000J-00050000D01*
G01*
X01300000Y01850000D02*
G03*
X01350000Y01800000I00050000J00000000D01*
G01*
X02150000Y02270000D02*
X02150000Y01850000D01*
X01350000Y02320000D02*
X02103500Y02320000D01*
X01300000Y02270000D02*
X01300000Y01850000D01*
X01350000Y01800000D02*
X02103500Y01800000D01*
D71*
X01858500Y01950000D02*
D03*
X01815500D02*
D03*
X01861500Y02268000D02*
D03*
X01818500D02*
D03*
D72*
X01463350Y02062850D02*
D03*
Y02017150D02*
D03*
D73*
X01530000Y02040000D02*
D03*
D74*
X01439500Y02097500D02*
D03*
Y02082500D02*
D03*
X01530000Y01972500D02*
D03*
Y01987500D02*
D03*
X02050000Y01985000D02*
D03*
Y02000000D02*
D03*
D75*
X01417500Y02082500D02*
D03*
X01402500D02*
D03*
X01805500Y01879000D02*
D03*
X01790500D02*
D03*
X01738000Y02139000D02*
D03*
X01723000D02*
D03*
X01625000Y02181000D02*
D03*
X01610000D02*
D03*
X01625000Y02165000D02*
D03*
X01610000D02*
D03*
X01582000Y02181000D02*
D03*
X01597000D02*
D03*
X02083000Y01995000D02*
D03*
X02068000D02*
D03*
X02044500Y02089000D02*
D03*
X02059500D02*
D03*
D76*
X01439500Y02062850D02*
D03*
X01420500D02*
D03*
D77*
X01550000Y01987500D02*
D03*
Y01968500D02*
D03*
D78*
X01951600Y02088820D02*
D03*
X02002400D02*
D03*
D79*
X01977000Y01985000D02*
D03*
D80*
X01854000Y02088000D02*
D03*
Y01998000D02*
D03*
D81*
X01648000Y02164700D02*
D03*
X01704000D02*
D03*
X01648000Y02177400D02*
D03*
X01704000D02*
D03*
X01648000Y02152000D02*
D03*
X01704000D02*
D03*
X01648000Y02139300D02*
D03*
X01704000D02*
D03*
D82*
X02050000Y02044000D02*
D03*
Y02015000D02*
D03*
D83*
X02074000Y01955000D02*
D03*
X02103000D02*
D03*
X01861750Y02238500D02*
D03*
X01890750D02*
D03*
D84*
X02123000Y01995000D02*
D03*
X02103000D02*
D03*
D85*
X02113000Y02027500D02*
D03*
D86*
X02087000Y02081000D02*
D03*
X02113000Y02071500D02*
D03*
Y02090500D02*
D03*
D87*
X01750000Y01879000D02*
D03*
D88*
X01700000D02*
D03*
X01765000Y02242500D02*
D03*
D89*
Y02267500D02*
D03*
D90*
X01973500Y02178500D02*
D03*
D91*
Y02238500D02*
D03*
D92*
X01926500Y02208500D02*
D03*
D93*
X01500000Y01850000D02*
D03*
Y02270000D02*
D03*
X01600000Y01850000D02*
D03*
Y02270000D02*
D03*
X01950000Y01850000D02*
D03*
X01850000D02*
D03*
D94*
X01725000Y02060000D02*
D03*
X02082750Y02253750D02*
D03*
Y01866250D02*
D03*
X01367250Y02253750D02*
D03*
Y01866250D02*
D03*
D95*
X01775000Y02000000D02*
D03*
Y01975000D02*
D03*
X01750000Y02000000D02*
D03*
Y01975000D02*
D03*
X01650000Y01950000D02*
D03*
Y01925000D02*
D03*
Y01900000D02*
D03*
Y01875000D02*
D03*
Y01850000D02*
D03*
Y01825000D02*
D03*
X01800000D02*
D03*
Y01850000D02*
D03*
X01900000Y01825000D02*
D03*
Y01850000D02*
D03*
X02000000Y01825000D02*
D03*
Y01850000D02*
D03*
Y01900000D02*
D03*
Y01875000D02*
D03*
X01675000Y02300000D02*
D03*
X01650000D02*
D03*
X01675000Y02275000D02*
D03*
X01650000D02*
D03*
X01675000Y02250000D02*
D03*
X01650000D02*
D03*
X02000000Y02275000D02*
D03*
X01900000D02*
D03*
X01925000D02*
D03*
X01950000D02*
D03*
X01975000D02*
D03*
X02000000Y02125000D02*
D03*
X02025000D02*
D03*
X01900000D02*
D03*
X01950000D02*
D03*
X01975000D02*
D03*
X02100000Y02200000D02*
D03*
Y02175000D02*
D03*
Y02150000D02*
D03*
Y02125000D02*
D03*
X02125000Y02100000D02*
D03*
Y02200000D02*
D03*
Y02175000D02*
D03*
Y02150000D02*
D03*
Y02125000D02*
D03*
X01650000Y01975000D02*
D03*
X01675000D02*
D03*
X01650000Y02000000D02*
D03*
X01675000D02*
D03*
X01700000D02*
D03*
Y01975000D02*
D03*
X01725000D02*
D03*
Y02000000D02*
D03*
X01600000D02*
D03*
Y01975000D02*
D03*
X01625000Y02000000D02*
D03*
Y01975000D02*
D03*
Y01950000D02*
D03*
X01600000D02*
D03*
Y02100000D02*
D03*
Y02075000D02*
D03*
X01625000Y02100000D02*
D03*
Y02075000D02*
D03*
Y02050000D02*
D03*
X01600000D02*
D03*
Y02025000D02*
D03*
X01625000D02*
D03*
X01475000Y02125000D02*
D03*
Y02150000D02*
D03*
X01500000D02*
D03*
Y02125000D02*
D03*
X01525000D02*
D03*
X01550000D02*
D03*
X01525000Y02150000D02*
D03*
X01550000D02*
D03*
X01450000Y02275000D02*
D03*
Y02250000D02*
D03*
Y02225000D02*
D03*
X01475000Y01975000D02*
D03*
X01450000D02*
D03*
Y01950000D02*
D03*
Y01925000D02*
D03*
X01475000Y01950000D02*
D03*
Y01925000D02*
D03*
X01425000D02*
D03*
Y01950000D02*
D03*
X01400000Y01925000D02*
D03*
Y01950000D02*
D03*
X01375000Y01925000D02*
D03*
Y01950000D02*
D03*
Y01975000D02*
D03*
X01400000D02*
D03*
X01425000D02*
D03*
Y02000000D02*
D03*
X01400000D02*
D03*
X01375000D02*
D03*
X01350000Y02175000D02*
D03*
Y02150000D02*
D03*
Y02125000D02*
D03*
Y02100000D02*
D03*
Y02075000D02*
D03*
Y02050000D02*
D03*
Y02025000D02*
D03*
Y02000000D02*
D03*
Y01975000D02*
D03*
Y01950000D02*
D03*
Y01925000D02*
D03*
X01325000Y02175000D02*
D03*
Y02150000D02*
D03*
Y02125000D02*
D03*
Y02100000D02*
D03*
Y02075000D02*
D03*
Y02050000D02*
D03*
Y02025000D02*
D03*
Y02000000D02*
D03*
Y01975000D02*
D03*
Y01950000D02*
D03*
Y01925000D02*
D03*
X01665500Y02152500D02*
D03*
X02087000Y02139500D02*
D03*
X01680750Y02139250D02*
D03*
X02059500Y02152500D02*
D03*
M02*
