G04*
G04 #@! TF.GenerationSoftware,Altium Limited,Altium Designer,23.9.2 (47)*
G04*
G04 Layer_Color=65535*
%FSAX44Y44*%
%MOMM*%
G71*
G04*
G04 #@! TF.SameCoordinates,CA360F41-C6A4-41FF-A6D1-DAC2DD7E16B6*
G04*
G04*
G04 #@! TF.FilePolarity,Positive*
G04*
G01*
G75*
%ADD10C,0.2000*%
%ADD11C,0.4000*%
%ADD12C,0.7000*%
%ADD13C,0.2540*%
%ADD14C,0.3000*%
%ADD15C,0.2032*%
%ADD16R,0.6554X0.1750*%
%ADD17R,0.7750X0.1500*%
%ADD18R,0.7750X0.1000*%
%ADD19R,0.1500X7.1352*%
%ADD20R,0.1500X6.9232*%
%ADD21R,0.1500X6.7674*%
%ADD22R,0.1500X3.2927*%
%ADD23R,0.1500X1.6754*%
%ADD24R,0.1500X2.0696*%
%ADD25R,0.1500X2.4238*%
%ADD26R,0.1500X2.6639*%
%ADD27R,0.1500X3.3042*%
%ADD28R,0.1500X4.0742*%
%ADD29R,0.1500X4.5018*%
%ADD30R,0.1500X4.8430*%
%ADD31R,0.1500X5.1238*%
%ADD32R,0.1500X5.3870*%
%ADD33R,0.1500X4.6198*%
%ADD34R,0.2236X5.7413*%
%ADD35R,0.1500X5.2447*%
%ADD36R,0.1500X6.2235*%
%ADD37R,0.1500X6.5312*%
%ADD38R,5.1000X0.1500*%
%ADD39R,5.0250X0.1500*%
%ADD40R,4.7000X0.1500*%
%ADD41R,4.6548X0.1500*%
%ADD42R,4.1779X0.1500*%
%ADD43R,4.3884X0.1500*%
%ADD44R,4.1801X0.1500*%
%ADD45R,3.9532X0.1500*%
%ADD46R,3.5138X0.1500*%
%ADD47R,3.3251X0.1500*%
%ADD48R,3.1284X0.1500*%
%ADD49R,2.8923X0.1500*%
%ADD50R,2.6639X0.1500*%
%ADD51R,2.4238X0.1500*%
%ADD52R,2.0696X0.1500*%
%ADD53R,1.6754X0.1500*%
%ADD54C,0.1000*%
G36*
X01660500Y02182350D02*
X01691500D01*
Y02172350D01*
X01660500D01*
Y02182350D01*
D02*
G37*
G36*
X02103500Y02067000D02*
X02096500D01*
Y02076000D01*
X02103500D01*
Y02067000D01*
D02*
G37*
D10*
X01775000Y01879000D02*
G03*
X01775000Y01879000I-00050000J00000000D01*
G01*
X01799000Y02255000D02*
G03*
X01799000Y02255000I-00034000J00000000D01*
G01*
X01803750Y01961250D02*
X01806142Y01963631D01*
X01811000Y01963620D01*
X01803750Y01938750D02*
X01806142Y01936369D01*
X01811000Y01936380D01*
X01862500Y01936500D01*
X01811000Y01963620D02*
X01863000D01*
X01459500Y02027250D02*
Y02052750D01*
Y02006750D02*
X01491500D01*
X01459500Y02073250D02*
X01491500D01*
X02027000Y02033750D02*
Y02099809D01*
X02012250D02*
X02027000D01*
X01927000D02*
X01941750D01*
X01927000Y02033750D02*
Y02099809D01*
X02019250Y01936250D02*
X02034000D01*
Y01951000D01*
X01920000Y01936250D02*
X01934750D01*
X01920000D02*
Y01951000D01*
X01794500Y01983500D02*
Y02102500D01*
X01913500Y01983500D02*
Y02102500D01*
X01884500D02*
X01913500D01*
X01884500Y01983500D02*
X01913500D01*
X01794500D02*
X01823500D01*
X01794500Y02102500D02*
X01823500D01*
X01660500Y02182350D02*
X01691500D01*
X01660500Y02134350D02*
X01691500D01*
Y02182350D01*
X01660500Y02134350D02*
Y02182350D01*
X02042250Y02023000D02*
Y02036000D01*
X02058000Y02023000D02*
Y02036000D01*
X02042250Y02023000D02*
X02058000D01*
X02042250Y02036000D02*
X02058000D01*
X02095000Y01947000D02*
Y01962750D01*
X02082000Y01947000D02*
Y01962750D01*
Y01947000D02*
X02095000D01*
X02082000Y01962750D02*
X02095000D01*
X02093500Y01985500D02*
X02109250D01*
X02093500D02*
Y02001000D01*
X02116750Y01985500D02*
X02132500D01*
Y02001000D01*
X02101496Y02038501D02*
X02124503D01*
X02101496Y02020000D02*
Y02038501D01*
X02124503Y02020000D02*
Y02038501D01*
X02103500Y02067000D02*
Y02095000D01*
X02096500Y02067000D02*
Y02095000D01*
X02103500D01*
X02096500Y02067000D02*
X02103500D01*
X01882750Y02230500D02*
Y02246250D01*
X01869750Y02230500D02*
Y02246250D01*
Y02230500D02*
X01882750D01*
X01869750Y02246250D02*
X01882750D01*
X01806750Y02279250D02*
X01809142Y02281631D01*
X01814000Y02281620D01*
X01806750Y02256750D02*
X01809142Y02254369D01*
X01814000Y02254380D01*
X01865500Y02254500D01*
X01814000Y02281620D02*
X01866000D01*
X01924500Y02315500D02*
X02018500D01*
Y02171500D02*
Y02315500D01*
X01924500Y02171500D02*
Y02182500D01*
X02001000Y02171500D02*
X02018500D01*
X01924500Y02234500D02*
Y02315500D01*
Y02171500D02*
X01945250D01*
D11*
X01975500Y02198500D02*
G03*
X01975500Y02198500I-00002000J00000000D01*
G01*
X01436000Y02090000D02*
X01443000D01*
X01410000Y02079000D02*
Y02086000D01*
X01526500Y01980000D02*
X01533500D01*
X01798000Y01875500D02*
Y01882500D01*
X01730500Y02135500D02*
Y02142500D01*
X01617500Y02177500D02*
Y02184500D01*
Y02161500D02*
Y02168500D01*
X01589500Y02177500D02*
Y02184500D01*
X02046500Y01992500D02*
X02053500D01*
X02075500Y01991500D02*
Y01998500D01*
X02052000Y02085500D02*
Y02092500D01*
D12*
X01430000Y02058850D02*
Y02066850D01*
X01546000Y01978000D02*
X01554000D01*
D13*
X01750000Y01854000D02*
Y01864000D01*
X01745000Y01859000D02*
X01755000D01*
X01776500Y02268000D02*
X01786500D01*
X01781500Y02263000D02*
Y02273000D01*
D14*
X01475000Y02220995D02*
X01494993D01*
X01484997Y02230992D02*
Y02210998D01*
X01504990Y02230992D02*
X01509989Y02235990D01*
X01519985D01*
X01524984Y02230992D01*
Y02225993D01*
X01519985Y02220995D01*
X01524984Y02215997D01*
Y02210998D01*
X01519985Y02206000D01*
X01509989D01*
X01504990Y02210998D01*
Y02215997D01*
X01509989Y02220995D01*
X01504990Y02225993D01*
Y02230992D01*
X01509989Y02220995D02*
X01519985D01*
X01534981Y02206000D02*
Y02210998D01*
X01539979D01*
Y02206000D01*
X01534981D01*
X01559973Y02230992D02*
X01564971Y02235990D01*
X01574968D01*
X01579966Y02230992D01*
Y02225993D01*
X01574968Y02220995D01*
X01569969D01*
X01574968D01*
X01579966Y02215997D01*
Y02210998D01*
X01574968Y02206000D01*
X01564971D01*
X01559973Y02210998D01*
X01589963Y02235990D02*
Y02215997D01*
X01599960Y02206000D01*
X01609956Y02215997D01*
Y02235990D01*
X01847000Y01904995D02*
X01866994D01*
X01856997Y01914992D02*
Y01894998D01*
X01876990Y01919990D02*
Y01890000D01*
Y01904995D01*
X01896984D01*
Y01919990D01*
Y01890000D01*
X01906981Y01919990D02*
Y01899997D01*
X01916977Y01890000D01*
X01926974Y01899997D01*
Y01919990D01*
X01480000Y01911995D02*
X01499993D01*
X01489997Y01921992D02*
Y01901998D01*
X01529984Y01926990D02*
X01519987Y01921992D01*
X01509990Y01911995D01*
Y01901998D01*
X01514989Y01897000D01*
X01524985D01*
X01529984Y01901998D01*
Y01906997D01*
X01524985Y01911995D01*
X01509990D01*
X01539981Y01897000D02*
Y01901998D01*
X01544979D01*
Y01897000D01*
X01539981D01*
X01564973Y01921992D02*
X01569971Y01926990D01*
X01579968D01*
X01584966Y01921992D01*
Y01916994D01*
X01579968Y01911995D01*
X01574969D01*
X01579968D01*
X01584966Y01906997D01*
Y01901998D01*
X01579968Y01897000D01*
X01569971D01*
X01564973Y01901998D01*
X01594963Y01926990D02*
Y01906997D01*
X01604960Y01897000D01*
X01614956Y01906997D01*
Y01926990D01*
D15*
X01563614Y01976307D02*
X01561922Y01974614D01*
Y01971229D01*
X01563614Y01969536D01*
X01570386D01*
X01572078Y01971229D01*
Y01974614D01*
X01570386Y01976307D01*
X01572078Y01986464D02*
Y01979693D01*
X01565307Y01986464D01*
X01563614D01*
X01561922Y01984771D01*
Y01981386D01*
X01563614Y01979693D01*
X01695536Y02199078D02*
Y02190614D01*
X01697229Y02188922D01*
X01700614D01*
X01702307Y02190614D01*
Y02199078D01*
X01712464Y02188922D02*
X01705693D01*
X01712464Y02195693D01*
Y02197386D01*
X01710771Y02199078D01*
X01707386D01*
X01705693Y02197386D01*
X01451229Y02090078D02*
Y02081614D01*
X01452922Y02079922D01*
X01456307D01*
X01458000Y02081614D01*
Y02090078D01*
X01461386Y02079922D02*
X01464771D01*
X01463078D01*
Y02090078D01*
X01461386Y02088386D01*
X02080229Y02110078D02*
X02087000D01*
X02083614D01*
Y02099922D01*
X02090386D02*
X02093771D01*
X02092078D01*
Y02110078D01*
X02090386Y02108386D01*
X02064747Y01975172D02*
Y01985328D01*
X02069825D01*
X02071518Y01983636D01*
Y01980250D01*
X02069825Y01978557D01*
X02064747D01*
X02068132D02*
X02071518Y01975172D01*
X02074904D02*
X02078289D01*
X02076596D01*
Y01985328D01*
X02074904Y01983636D01*
X02083368Y01975172D02*
X02086753D01*
X02085060D01*
Y01985328D01*
X02083368Y01983636D01*
X02068054Y01930672D02*
Y01940828D01*
X02073132D01*
X02074825Y01939136D01*
Y01935750D01*
X02073132Y01934057D01*
X02068054D01*
X02071440D02*
X02074825Y01930672D01*
X02078211D02*
X02081596D01*
X02079904D01*
Y01940828D01*
X02078211Y01939136D01*
X02086675D02*
X02088368Y01940828D01*
X02091753D01*
X02093446Y01939136D01*
Y01932364D01*
X02091753Y01930672D01*
X02088368D01*
X02086675Y01932364D01*
Y01939136D01*
X01618536Y02191922D02*
Y02202078D01*
X01623614D01*
X01625307Y02200386D01*
Y02197000D01*
X01623614Y02195307D01*
X01618536D01*
X01621922D02*
X01625307Y02191922D01*
X01628693Y02193614D02*
X01630386Y02191922D01*
X01633771D01*
X01635464Y02193614D01*
Y02200386D01*
X01633771Y02202078D01*
X01630386D01*
X01628693Y02200386D01*
Y02198693D01*
X01630386Y02197000D01*
X01635464D01*
X02044536Y02097922D02*
Y02108078D01*
X02049614D01*
X02051307Y02106386D01*
Y02103000D01*
X02049614Y02101307D01*
X02044536D01*
X02047922D02*
X02051307Y02097922D01*
X02054693Y02106386D02*
X02056386Y02108078D01*
X02059771D01*
X02061464Y02106386D01*
Y02104693D01*
X02059771Y02103000D01*
X02061464Y02101307D01*
Y02099614D01*
X02059771Y02097922D01*
X02056386D01*
X02054693Y02099614D01*
Y02101307D01*
X02056386Y02103000D01*
X02054693Y02104693D01*
Y02106386D01*
X02056386Y02103000D02*
X02059771D01*
X02056078Y01959536D02*
X02045922D01*
Y01964614D01*
X02047614Y01966307D01*
X02051000D01*
X02052693Y01964614D01*
Y01959536D01*
Y01962922D02*
X02056078Y01966307D01*
X02045922Y01969693D02*
Y01976464D01*
X02047614D01*
X02054386Y01969693D01*
X02056078D01*
X01722536Y02148922D02*
Y02159078D01*
X01727614D01*
X01729307Y02157386D01*
Y02154000D01*
X01727614Y02152307D01*
X01722536D01*
X01725922D02*
X01729307Y02148922D01*
X01739464Y02159078D02*
X01736078Y02157386D01*
X01732693Y02154000D01*
Y02150614D01*
X01734386Y02148922D01*
X01737771D01*
X01739464Y02150614D01*
Y02152307D01*
X01737771Y02154000D01*
X01732693D01*
X01554536Y02175922D02*
Y02186078D01*
X01559614D01*
X01561307Y02184386D01*
Y02181000D01*
X01559614Y02179307D01*
X01554536D01*
X01557922D02*
X01561307Y02175922D01*
X01571464Y02186078D02*
X01564693D01*
Y02181000D01*
X01568078Y02182693D01*
X01569771D01*
X01571464Y02181000D01*
Y02177614D01*
X01569771Y02175922D01*
X01566386D01*
X01564693Y02177614D01*
X01790536Y01888922D02*
Y01899078D01*
X01795614D01*
X01797307Y01897386D01*
Y01894000D01*
X01795614Y01892307D01*
X01790536D01*
X01793922D02*
X01797307Y01888922D01*
X01805771D02*
Y01899078D01*
X01800693Y01894000D01*
X01807464D01*
X01401536Y02092922D02*
Y02103078D01*
X01406614D01*
X01408307Y02101386D01*
Y02098000D01*
X01406614Y02096307D01*
X01401536D01*
X01404922D02*
X01408307Y02092922D01*
X01411693Y02101386D02*
X01413386Y02103078D01*
X01416771D01*
X01418464Y02101386D01*
Y02099693D01*
X01416771Y02098000D01*
X01415078D01*
X01416771D01*
X01418464Y02096307D01*
Y02094614D01*
X01416771Y02092922D01*
X01413386D01*
X01411693Y02094614D01*
X01445078Y02106536D02*
X01434922D01*
Y02111614D01*
X01436614Y02113307D01*
X01440000D01*
X01441693Y02111614D01*
Y02106536D01*
Y02109922D02*
X01445078Y02113307D01*
Y02123464D02*
Y02116693D01*
X01438307Y02123464D01*
X01436614D01*
X01434922Y02121771D01*
Y02118386D01*
X01436614Y02116693D01*
X01520078Y01974229D02*
X01509922D01*
Y01979307D01*
X01511614Y01981000D01*
X01515000D01*
X01516693Y01979307D01*
Y01974229D01*
Y01977614D02*
X01520078Y01981000D01*
Y01984386D02*
Y01987771D01*
Y01986078D01*
X01509922D01*
X01511614Y01984386D01*
X01926000Y02113614D02*
Y02120386D01*
X01924307Y02122078D01*
X01920922D01*
X01919229Y02120386D01*
Y02113614D01*
X01920922Y02111922D01*
X01924307D01*
X01922614Y02115307D02*
X01926000Y02111922D01*
X01924307D02*
X01926000Y02113614D01*
X01929386Y02111922D02*
X01932771D01*
X01931078D01*
Y02122078D01*
X01929386Y02120386D01*
X02093072Y02043922D02*
Y02054078D01*
X02098150D01*
X02099843Y02052386D01*
Y02049000D01*
X02098150Y02047307D01*
X02093072D01*
X02108307Y02054078D02*
X02104922D01*
X02103229Y02052386D01*
Y02045614D01*
X02104922Y02043922D01*
X02108307D01*
X02110000Y02045614D01*
Y02052386D01*
X02108307Y02054078D01*
X02113386D02*
X02120157D01*
X02116771D01*
Y02043922D01*
X02123542D02*
X02126928D01*
X02125235D01*
Y02054078D01*
X02123542Y02052386D01*
X01793229Y02132078D02*
Y02121922D01*
X01800000D01*
X01803386D02*
X01806771D01*
X01805078D01*
Y02132078D01*
X01803386Y02130386D01*
X01906922Y02295000D02*
Y02291614D01*
Y02293307D01*
X01915386D01*
X01917078Y02291614D01*
Y02289922D01*
X01915386Y02288229D01*
X01917078Y02298386D02*
Y02301771D01*
Y02300078D01*
X01906922D01*
X01908614Y02298386D01*
X01877000Y02225078D02*
X01870229D01*
Y02220000D01*
X01873614D01*
X01870229D01*
Y02214922D01*
X01880386D02*
X01883771D01*
X01882078D01*
Y02225078D01*
X01880386Y02223386D01*
X01870964Y01969422D02*
Y01979578D01*
X01865885D01*
X01864193Y01977886D01*
Y01971114D01*
X01865885Y01969422D01*
X01870964D01*
X01854036Y01979578D02*
X01860807D01*
X01854036Y01972807D01*
Y01971114D01*
X01855729Y01969422D01*
X01859114D01*
X01860807Y01971114D01*
X01806229Y02298078D02*
Y02287922D01*
X01811307D01*
X01813000Y02289614D01*
Y02296386D01*
X01811307Y02298078D01*
X01806229D01*
X01816386Y02287922D02*
X01819771D01*
X01818078D01*
Y02298078D01*
X01816386Y02296386D01*
X01614307Y02153386D02*
X01612614Y02155078D01*
X01609229D01*
X01607536Y02153386D01*
Y02146615D01*
X01609229Y02144922D01*
X01612614D01*
X01614307Y02146615D01*
X01624464Y02155078D02*
X01621078Y02153386D01*
X01617693Y02150000D01*
Y02146615D01*
X01619386Y02144922D01*
X01622771D01*
X01624464Y02146615D01*
Y02148307D01*
X01622771Y02150000D01*
X01617693D01*
X02046614Y02060307D02*
X02044922Y02058615D01*
Y02055229D01*
X02046614Y02053536D01*
X02053386D01*
X02055078Y02055229D01*
Y02058615D01*
X02053386Y02060307D01*
X02044922Y02070464D02*
Y02063693D01*
X02050000D01*
X02048307Y02067078D01*
Y02068771D01*
X02050000Y02070464D01*
X02053386D01*
X02055078Y02068771D01*
Y02065386D01*
X02053386Y02063693D01*
X01682307Y01943386D02*
X01680614Y01945078D01*
X01677229D01*
X01675536Y01943386D01*
Y01936614D01*
X01677229Y01934922D01*
X01680614D01*
X01682307Y01936614D01*
X01690771Y01934922D02*
Y01945078D01*
X01685693Y01940000D01*
X01692464D01*
X01401307Y02067386D02*
X01399614Y02069078D01*
X01396229D01*
X01394536Y02067386D01*
Y02060614D01*
X01396229Y02058922D01*
X01399614D01*
X01401307Y02060614D01*
X01404693Y02067386D02*
X01406386Y02069078D01*
X01409771D01*
X01411464Y02067386D01*
Y02065693D01*
X01409771Y02064000D01*
X01408078D01*
X01409771D01*
X01411464Y02062307D01*
Y02060614D01*
X01409771Y02058922D01*
X01406386D01*
X01404693Y02060614D01*
X01720614Y02232000D02*
X01718922Y02230307D01*
Y02226922D01*
X01720614Y02225229D01*
X01727386D01*
X01729078Y02226922D01*
Y02230307D01*
X01727386Y02232000D01*
X01729078Y02235386D02*
Y02238771D01*
Y02237078D01*
X01718922D01*
X01720614Y02235386D01*
D16*
X01808223Y01962375D02*
D03*
Y01937625D02*
D03*
X01811223Y02280375D02*
D03*
Y02255625D02*
D03*
D17*
X01807625Y01961500D02*
D03*
Y01938500D02*
D03*
X01810626Y02279500D02*
D03*
Y02256500D02*
D03*
D18*
X01807626Y01960748D02*
D03*
X01807626Y01939248D02*
D03*
X01810626Y02278748D02*
D03*
X01810626Y02257248D02*
D03*
D19*
X01759622Y01879101D02*
D03*
D20*
X01760794Y01879097D02*
D03*
D21*
X01761698Y01878967D02*
D03*
D22*
X01771750Y01878405D02*
D03*
D23*
X01773750Y01880623D02*
D03*
D24*
X01773250Y01879902D02*
D03*
D25*
X01772750Y01879381D02*
D03*
D26*
X01772250Y01878931D02*
D03*
D27*
X01770986Y01879473D02*
D03*
D28*
X01770500Y01878810D02*
D03*
D29*
X01769250Y01878057D02*
D03*
D30*
X01768500Y01878737D02*
D03*
D31*
X01767500Y01878470D02*
D03*
D32*
X01766750Y01878145D02*
D03*
D33*
X01766323Y01882849D02*
D03*
D34*
X01765118Y01878358D02*
D03*
D35*
X01764750Y01881974D02*
D03*
D36*
X01764000Y01878738D02*
D03*
D37*
X01762750Y01879039D02*
D03*
D38*
X01764999Y02276750D02*
D03*
D39*
X01765375Y02278000D02*
D03*
D40*
X01764751Y02278750D02*
D03*
D41*
X01764976Y02279486D02*
D03*
D42*
X01763360Y02280323D02*
D03*
D43*
X01764692Y02280750D02*
D03*
D44*
X01764401Y02281500D02*
D03*
D45*
X01764266Y02282500D02*
D03*
D46*
X01764819Y02283250D02*
D03*
D47*
X01765626Y02284500D02*
D03*
D48*
X01765406Y02284987D02*
D03*
D49*
X01765212Y02285750D02*
D03*
D50*
X01765070Y02286250D02*
D03*
D51*
X01764619Y02286750D02*
D03*
D52*
X01764099Y02287251D02*
D03*
D53*
X01763377Y02287750D02*
D03*
D54*
X02150000Y02270000D02*
G03*
X02100000Y02320000I-00050000J00000000D01*
G01*
X02100000Y01800000D02*
G03*
X02150000Y01850000I00000000J00050000D01*
G01*
X01350000Y02320000D02*
G03*
X01300000Y02270000I00000000J-00050000D01*
G01*
X01300000Y01850000D02*
G03*
X01350000Y01800000I00050000J00000000D01*
G01*
X02150000Y02270000D02*
X02150000Y01850000D01*
X01350000Y02320000D02*
X02103500Y02320000D01*
X01300000Y02270000D02*
X01300000Y01850000D01*
X01350000Y01800000D02*
X02103500Y01800000D01*
M02*
