M48
;Layer_Color=9474304
;FILE_FORMAT=4:4
METRIC
;TYPE=PLATED
T01F00S00C0.3000
T02F00S00C0.7000
T03F00S00C0.8000
T05F00S00C3.2000
T06F00S00C6.4000
T07F00S00C9.0000
%
T01
X01325000Y01925000
X01350000
X01375000
X01400000
X01425000
X01450000
Y01950000
Y01975000
X01475000
Y01950000
Y01925000
X01425000Y01950000
X01400000
X01375000
Y01975000
X01400000
X01425000
X01350000
Y01950000
X01325000
Y01975000
X01600000
X01625000
X01650000
Y01950000
Y01925000
Y01900000
Y01875000
Y01850000
Y01825000
X01800000
Y01850000
X01900000
Y01825000
X01775000Y01975000
X01750000
X01725000
X01700000
X01675000
X01625000Y01950000
X01600000
X02000000Y01900000
Y01875000
Y01850000
Y01825000
X02000000Y02125000
X02025000
X02059500Y02152500
X02087000Y02139500
X02100000Y02150000
Y02175000
Y02200000
X02125000
Y02175000
Y02150000
Y02125000
X02100000
X02125000Y02100000
X02000000Y02275000
X01975000
X01950000
X01925000
X01900000
Y02125000
X01950000
X01975000
X01680750Y02139250
X01665500Y02152500
X01625000Y02100000
X01600000
Y02075000
X01625000
Y02050000
X01600000
Y02025000
Y02000000
X01625000
X01650000
X01675000
X01700000
X01725000
X01750000
X01775000
X01625000Y02025000
X01650000Y02250000
Y02275000
Y02300000
X01675000
Y02275000
Y02250000
X01550000Y02150000
Y02125000
X01525000
X01500000
X01475000
Y02150000
X01500000
X01525000
X01450000Y02225000
Y02250000
Y02275000
X01350000Y02175000
Y02150000
Y02125000
Y02100000
Y02075000
Y02050000
Y02025000
Y02000000
X01375000
X01400000
X01425000
X01325000
Y02025000
Y02050000
Y02075000
Y02100000
Y02125000
Y02150000
Y02175000
T02
X01765000Y02242500
Y02267500
T03
X01700000Y01879000
X01750000
T05
X01500000Y01850000
X01600000
X01850000
X01950000
X01600000Y02270000
X01500000
T06
X01367250Y01866250
X02082750
Y02253750
X01367250
T07
X01725000Y02060000
M30
